<svg width="501" height="501" viewBox="0 0 501 501" fill="none" xmlns="http://www.w3.org/2000/svg">
<path d="M397.631 0H103.369C46.2797 0 0 46.2797 0 103.369V397.632C0 454.72 46.2797 501 103.369 501H397.631C454.72 501 501 454.72 501 397.632V103.369C501 46.2797 454.72 0 397.631 0Z" fill="#F2F2F2"/>
<path d="M256.908 145.766C193.087 145.766 141.073 197.78 141.073 261.602C141.073 325.424 193.087 377.438 256.908 377.438C284.125 377.438 308.119 366.567 327.923 350.767L376.49 399.409C378.904 401.822 382.177 403.177 385.59 403.177C389.003 403.177 392.276 401.822 394.69 399.409C397.106 396.998 398.467 393.727 398.471 390.314C398.476 386.901 397.125 383.626 394.716 381.209L346.099 332.567C361.878 312.77 372.745 288.799 372.745 261.602C372.745 197.78 320.731 145.766 256.908 145.766ZM256.908 171.507C306.819 171.507 347.003 211.692 347.003 261.602C347.003 286.504 336.958 308.95 320.734 325.226C320.7 325.243 320.667 325.26 320.633 325.277C320.617 325.318 320.6 325.361 320.583 325.403C304.303 341.65 281.831 351.697 256.909 351.697C206.998 351.697 166.814 311.513 166.814 261.602C166.814 211.692 206.998 171.507 256.908 171.507ZM256.908 184.378C253.495 184.378 250.221 185.734 247.808 188.148C245.394 190.562 244.038 193.835 244.038 197.249C244.038 200.662 245.394 203.936 247.808 206.35C250.221 208.763 253.495 210.119 256.908 210.119C285.494 210.119 308.391 233.017 308.391 261.602C308.391 265.016 309.747 268.289 312.161 270.703C314.575 273.117 317.848 274.473 321.262 274.473C324.675 274.473 327.949 273.117 330.363 270.703C332.776 268.289 334.132 265.016 334.132 261.602C334.132 219.105 299.405 184.378 256.908 184.378Z" fill="#008000"/>
<path d="M250.5 46.2684C176.548 46.2684 121.168 66.2814 89.9314 81.363C72.2423 89.9009 60.9805 107.79 60.9805 127.431C60.9805 359.528 183.363 431.652 231.438 451.03C237.553 453.496 244.026 454.731 250.5 454.731C256.974 454.731 263.448 453.496 269.562 451.03C290.325 442.661 324.943 424.412 357.58 387.73L338.499 368.64C327.058 381.673 314.451 393.252 300.77 403.092C284.154 415.043 269.158 422.187 259.504 426.081C256.63 427.237 253.6 427.828 250.5 427.828C247.4 427.828 244.371 427.237 241.497 426.081C231.843 422.187 216.847 415.043 200.23 403.092C181.289 389.469 164.324 372.616 149.807 353C131.365 328.076 116.816 298.557 106.566 265.269C94.1693 225.005 87.8843 178.634 87.8843 127.431C87.8843 122.872 89.1686 118.417 91.5985 114.552C94.0329 110.682 97.5008 107.582 101.629 105.587C119.846 96.7914 139.77 89.6082 160.849 84.2255C189.598 76.8931 219.761 73.1722 250.5 73.1722C281.24 73.1722 311.403 76.8931 340.151 84.2255C361.23 89.6082 381.154 96.7914 399.371 105.587C403.5 107.582 406.968 110.682 409.402 114.552C411.832 118.417 413.117 122.872 413.117 127.431C413.117 178.634 406.831 225.005 394.434 265.269C386.091 292.363 374.854 316.908 361.035 338.562L380.492 358.04C413.596 308.516 440.02 235.255 440.02 127.431C440.02 107.79 428.758 89.9009 411.069 81.363C379.833 66.2814 324.453 46.2684 250.5 46.2684Z" fill="#000080"/>
</svg>
